# xmcd
#
# Track frame offsets: 
#        150
#        17442
#        42416
#        71578
#        96957
#        120023
#        143108
#        160266
#        180589
#        195902
#        218516
#        252315
#
# Disc length: 3709 seconds
#
# Revision: 0
# Processed by: cddbd v1.5.2PL0 Copyright (c) Steve Scherf et al.
# Submitted via: ExactAudioCopyFreeDBPlugin 1.0
#
DISCID=950e7b0c
DTITLE=Bluesmopolitans - Ois durchanaund
DYEAR=2015
DGENRE=Blues
TTITLE0=I'm not diasppointed
TTITLE1=It wouldn't have got better
TTITLE2=Ois durchanaund
TTITLE3=Heit geh i ned ausse
TTITLE4=I'm gonna be fine
TTITLE5=Rising up
TTITLE6=I wonder
TTITLE7=Olle höff ma zaum
TTITLE8=Steh auf
TTITLE9=I lan mi zruck
TTITLE10=Tell me
TTITLE11=Kill for food a.k.a. Fleisch
EXTD=
EXTT0=
EXTT1=
EXTT2=
EXTT3=
EXTT4=
EXTT5=
EXTT6=
EXTT7=
EXTT8=
EXTT9=
EXTT10=
EXTT11=
PLAYORDER=
